<svg xmlns="http://www.w3.org/2000/svg" width="500" height="140" viewBox="0 0 500 140">
  <defs>
    <style>
      .a {
        fill: #f28c00;
      }
    </style>
  </defs>
  <title>logo</title>
  <path class="a" d="M255.13,72.47h-.47a132,132,0,0,0-5.86-13.14c-3.54-6.67-11.74-22.06-11.74-22.06H220.57v63.55h15.06V64.26h.46a107.07,107.07,0,0,0,5.68,12.54c3.84,7,13,24,13,24h15.44V37.27H255.13Zm-88.34,28.35H210V86.9H182.4V75.75H206V61.82H182.4V51.2h27V37.27H166.79ZM99.15,86.9H71.57V75.75H95.13V61.82H71.57V51.2h27V37.27H56v63.55H99.15ZM90.4,140l42.8-39.18H121.6l10.46-19,10.46,19h18.22l-19.7-33,21.14-36.69h-8.06L172,.16l-.2-.16L131.07,37.27h10.61L132.25,55,122.8,37.27H104.66l18.61,31.26L101,107.11h8.09L90.21,139.85ZM0,51.2H15.63v49.62H31.24V51.2H46.86V37.27H0ZM475.81,36.27c-14,0-24.19,9.11-24.19,26.1V76.24c0,16.92,10.71,25.59,24.19,25.59,14.89,0,24.19-10.34,24.19-25.59V62.37C500,45.23,489.62,36.27,475.81,36.27Zm0,51.62c-4.43,0-8.57-2.11-8.57-13.52V64.1c0-11,3.43-13.9,8.57-13.9,5.32,0,8.52,3,8.56,13.9,0,.28,0,10,0,10.27C484.38,86,480.16,87.89,475.81,87.89ZM385.08,57.71c0-10.44-7.59-20.44-21.69-20.44H338.22v63.55h15.62V77.17h5.27l11.24,23.65h18.12L374.73,74.31a18.27,18.27,0,0,0,10.35-16.6M362.2,64.14h-8.36V51.29h8.36c4.68,0,7.26,2.38,7.26,6.42s-2.58,6.43-7.26,6.43m-77.77,36.68h43.2V86.9H300.05V75.75h23.56V61.82H300.05V51.2h27.58V37.27h-43.2ZM441.81,65.18V76.24c0,15.25-9.29,25.59-24.19,25.59-13.47,0-24.19-8.67-24.19-25.59V62.37c0-17,10.22-26.1,24.19-26.1,12.4,0,22,7.21,23.87,21.07H425.58c-1.17-5.43-4-7.15-8-7.15-5.13,0-8.53,2.88-8.56,13.91V74.37c0,11.41,4.13,13.52,8.56,13.52,3.89,0,7.68-1.53,8.43-10.17h-8.53V65.18Z"/>
</svg>
